<svg width="22" height="22" viewBox="0 0 22 22" fill="none" xmlns="http://www.w3.org/2000/svg">
<path fill-rule="evenodd" clip-rule="evenodd" d="M10.3537 3.8502C6.76139 3.8502 3.85001 6.76157 3.85001 10.3539C3.85001 13.9462 6.76139 16.8575 10.3537 16.8575C12.0777 16.8575 13.6436 16.1878 14.8082 15.0926C16.0707 13.9053 16.8574 12.2222 16.8574 10.3539C16.8574 6.76163 13.9452 3.8502 10.3537 3.8502ZM2.20001 10.3539C2.20001 5.8503 5.85012 2.2002 10.3537 2.2002C14.8564 2.2002 18.5074 5.85024 18.5074 10.3539C18.5074 12.3987 17.7539 14.2683 16.5111 15.6989L19.0614 18.4099C19.3736 18.7418 19.3576 19.2639 19.0258 19.5761C18.6939 19.8883 18.1718 19.8723 17.8596 19.5405L15.3092 16.8293C13.936 17.8815 12.2172 18.5075 10.3537 18.5075C5.85012 18.5075 2.20001 14.8574 2.20001 10.3539Z" fill="#E8E8E8"/>
<path d="M6.9705 12.0999C6.73294 11.5998 6.60001 11.0404 6.60001 10.4499C6.60001 9.04942 7.34778 7.8236 8.46583 7.1499" stroke="#202123" stroke-width="1.5" stroke-linecap="round"/>
<path opacity="0.4" d="M6.9705 12.0999C6.73294 11.5998 6.60001 11.0404 6.60001 10.4499C6.60001 9.04942 7.34778 7.8236 8.46583 7.1499" stroke="#E8E8E8" stroke-width="1.5" stroke-linecap="round"/>
</svg>
