<svg width="18" height="18" viewBox="0 0 18 18" fill="none" xmlns="http://www.w3.org/2000/svg">
<path d="M17.8555 9.18226C17.8555 8.51476 17.7992 7.85648 17.6809 7.21875H9.1875V10.5001H14.0574C13.8406 11.5851 13.1957 12.5255 12.2473 13.1338V15.2924H15.1459C16.8256 13.7435 17.8555 11.6456 17.8555 9.18226Z" fill="#4285F4"/>
<path d="M9.1875 18C11.6478 18 13.7173 17.1942 15.1459 15.2925L12.2473 13.1339C11.4435 13.6852 10.4063 14.0004 9.1875 14.0004C6.8133 14.0004 4.80205 12.4716 4.09438 10.36H1.09863V12.5987C2.51875 15.7667 5.60295 18 9.1875 18Z" fill="#34A853"/>
<path d="M4.09438 10.3599C3.90973 9.80887 3.80438 9.21621 3.80438 8.59996C3.80438 7.98371 3.90973 7.39105 4.09438 6.84004V4.60132H1.09863C0.512 5.76389 0.1875 7.0826 0.1875 8.59996C0.1875 10.1173 0.512 11.436 1.09863 12.5986L4.09438 10.3599Z" fill="#FBBC05"/>
<path d="M9.1875 3.19966C10.5261 3.19966 11.7228 3.64656 12.6711 4.55332L15.2583 1.96612C13.7139 0.718824 11.6443 0 9.1875 0C5.60295 0 2.51875 2.23333 1.09863 5.40133L4.09438 7.64005C4.80205 5.52839 6.8133 3.19966 9.1875 3.19966Z" fill="#EA4335"/>
</svg>